<svg width="106" height="78" viewBox="0 0 106 78" fill="none" xmlns="http://www.w3.org/2000/svg">
<path fill-rule="evenodd" clip-rule="evenodd" d="M10 0C4.47717 0 0 4.47714 0 10V68C0 73.5228 4.47717 78 10 78H96C101.523 78 106 73.5228 106 68V10C106 4.47714 101.523 0 96 0H10ZM89.9984 23.7369C90.9576 23.1893 91.2914 21.9677 90.7438 21.0085C90.1962 20.0492 88.9746 19.7155 88.0153 20.2631L52.2197 40.6974L17.0035 20.27C16.048 19.7158 14.8242 20.041 14.27 20.9965C13.7158 21.952 14.041 23.1758 14.9965 23.73L51.2082 44.7349L52.2037 45.3123L53.2032 44.7418L89.9984 23.7369Z" fill="white"/>
</svg>
