<svg width="75" height="105" viewBox="0 0 75 105" fill="none" xmlns="http://www.w3.org/2000/svg">
<path fill-rule="evenodd" clip-rule="evenodd" d="M53.4261 18.142C54.9785 21.1743 55.8534 26.8906 55.9818 35.2963C56.0422 39.2544 55.9432 43.3965 55.8215 47.6192L55.8105 48H19.075C18.9963 43.8532 18.9474 39.7063 19.0762 35.4455C19.3289 27.0792 20.2874 21.2649 21.8862 18.142C24.8407 12.371 31.6667 10 37.6561 10C43.6455 10 50.4716 12.371 53.4261 18.142ZM9.07385 48.0423C8.84711 35.3271 8.89447 21.5746 12.9849 13.5849C18.4195 2.96964 29.9704 0 37.6561 0C45.3418 0 56.8928 2.96964 62.3273 13.5849C66.4167 21.5726 66.181 35.3201 65.8138 48.0326C70.956 48.4467 75 52.7511 75 58V95C75 100.523 70.5228 105 65 105H10C4.47717 105 0 100.523 0 95V58C0 52.7894 3.98523 48.5096 9.07385 48.0423Z" fill="white"/>
</svg>
